<svg preserveAspectRatio="xMidYMid meet" viewBox="92.7536231884058 205.89999999999998 1139.1304347826087 301.59999999999997" xmlns="http://www.w3.org/2000/svg" version="1.0" style="max-height: 500px" width="1139.1304347826087" height="301.59999999999997">

<g stroke="none" fill="#000000" transform="translate(0.000000,725.000000) scale(0.100000,-0.100000)">
<path d="M12420 5155 c-30 -13 -68 -24 -85 -25 -17 0 -103 -38 -195 -85 -473&#10;-243 -456 -235 -560 -245 -52 -5 -137 -10 -188 -10 -174 0 -462 -80 -590 -162&#10;-113 -74 -167 -91 -296 -92 -104 -2 -117 -4 -206 -40 -79 -32 -195 -86 -320&#10;-149 -18 -9 -58 -11 -143 -8 -101 5 -117 4 -115 -9 6 -29 68 -52 126 -45 62 6&#10;242 62 242 75 0 5 16 14 35 20 20 6 50 24 67 38 18 15 29 22 26 16 -4 -6 19 2&#10;50 17 80 37 119 46 251 54 67 4 126 12 142 21 16 8 38 14 51 14 13 0 59 24&#10;104 53 58 38 117 65 210 96 159 53 233 64 444 66 129 2 173 5 202 18 21 10 48&#10;17 61 17 52 0 257 63 245 76 -3 2 -19 -1 -36 -7 -17 -6 -39 -9 -49 -7 -22 4&#10;86 66 162 93 28 10 63 33 80 51 19 21 54 43 95 58 36 13 97 40 137 60 39 20&#10;85 36 102 36 21 0 31 5 31 15 0 20 -14 18 -80 -10z"/>
<path d="M3070 4593 c-178 -29 -215 -38 -297 -73 -51 -22 -99 -40 -108 -40 -8&#10;0 -19 -9 -25 -21 -7 -11 -37 -32 -68 -46 -31 -13 -62 -33 -70 -44 -25 -36 -90&#10;-59 -205 -75 -290 -39 -309 -43 -392 -84 -44 -21 -95 -50 -114 -64 -19 -14&#10;-43 -26 -54 -26 -23 0 -42 -10 -145 -77 -70 -45 -114 -64 -285 -119 -606 -194&#10;-797 -262 -797 -283 0 -17 16 -13 71 15 49 26 52 26 85 10 19 -9 47 -16 62&#10;-15 l27 1 -32 11 c-17 7 -34 15 -38 18 -7 7 144 73 207 89 38 11 44 9 82 -18&#10;65 -45 70 -48 57 -25 -5 11 -22 28 -36 37 -33 22 -32 36 4 36 19 0 50 -15 88&#10;-44 32 -24 60 -42 62 -40 7 7 -61 73 -81 80 -10 3 -18 9 -18 14 0 9 20 16 290&#10;101 172 53 281 98 312 126 11 9 42 29 71 44 29 14 95 49 147 77 118 62 215 90&#10;362 103 62 5 128 14 146 19 19 5 43 5 55 1 39 -14 127 -22 127 -12 0 7 9 6 25&#10;-1 35 -16 42 -4 22 37 -18 38 -22 81 -8 89 7 5 21 -39 59 -179 5 -18 4 -18&#10;-11 -6 -22 17 -22 -2 -1 -23 13 -14 17 -14 29 -2 11 11 12 22 4 50 -14 49 3&#10;126 41 193 33 58 79 88 182 117 82 24 89 25 263 32 l161 7 64 -32 c36 -17 77&#10;-31 92 -31 35 0 66 -13 101 -42 l28 -23 -17 -42 c-9 -24 -20 -43 -24 -43 -4 0&#10;-15 17 -23 38 -9 20 -22 46 -31 57 -26 33 -20 -7 7 -46 31 -46 50 -96 42 -108&#10;-3 -6 -2 -11 4 -11 5 0 11 -11 13 -25 3 -22 5 -20 20 17 l18 41 -21 -19 -21&#10;-19 7 35 c4 19 16 54 27 78 18 37 24 42 54 42 19 0 34 -4 34 -9 0 -6 -11 -31&#10;-25 -57 -14 -26 -25 -61 -24 -78 0 -25 5 -18 23 36 24 73 49 108 77 108 18 0&#10;18 -2 -1 -32 -11 -18 -20 -37 -20 -43 0 -5 8 4 19 20 10 17 28 39 40 50 30 27&#10;40 9 42 -75 0 -36 4 -74 9 -85 6 -12 7 17 3 75 -7 115 -1 123 90 127 60 2 60&#10;2 22 -8 -22 -6 -51 -12 -65 -15 -21 -5 -22 -7 -8 -15 12 -7 16 -24 16 -76 0&#10;-59 18 -162 26 -152 2 2 -2 36 -7 74 -6 39 -7 87 -3 108 6 34 10 37 41 37 28&#10;0 37 -6 49 -28 8 -16 23 -35 32 -43 14 -11 13 -6 -4 23 -39 64 24 64 91 0 20&#10;-20 37 -32 37 -26 0 5 -5 15 -12 22 -32 32 36 25 92 -10 19 -12 45 -21 58 -19&#10;14 1 36 -9 58 -28 19 -17 40 -31 47 -31 8 0 7 4 -3 10 -23 14 -3 25 24 12 14&#10;-6 41 -36 61 -68 20 -31 39 -54 42 -50 3 3 -6 23 -21 44 -33 48 -34 66 -3 56&#10;46 -14 80 -37 149 -102 48 -44 64 -56 49 -34 -29 42 -21 50 21 24 54 -34 82&#10;-49 106 -56 34 -11 27 11 -13 36 -19 13 -33 29 -30 36 3 7 -4 12 -18 12 -12 0&#10;-29 5 -37 10 -27 17 176 18 209 1 9 -5 47 -4 86 1 58 8 79 7 120 -7 96 -32&#10;106 -38 120 -69 19 -42 154 -186 155 -164 0 9 -12 31 -26 48 -15 17 -24 33&#10;-22 36 6 5 41 -30 91 -89 21 -25 45 -41 70 -46 20 -5 37 -7 37 -4 0 2 -13 16&#10;-30 30 -16 13 -30 29 -30 35 0 21 48 -7 91 -56 48 -52 77 -61 37 -11 -36 46 5&#10;16 52 -37 23 -27 49 -48 58 -48 12 0 8 8 -14 28 -18 15 -40 39 -49 55 -17 27&#10;-17 27 7 27 14 0 36 -13 53 -30 29 -30 113 -75 122 -66 3 3 -9 13 -27 23 -45&#10;25 -80 53 -80 63 0 17 52 -10 93 -46 46 -42 63 -37 22 6 -45 47 -24 44 39 -5&#10;31 -24 63 -42 71 -39 7 3 23 0 35 -6 18 -10 21 -10 14 2 -4 7 -18 21 -31 31&#10;-28 22 -30 37 -4 37 18 0 91 -74 91 -91 0 -4 12 -7 27 -6 24 2 29 -3 42 -42&#10;12 -37 16 -42 25 -29 16 22 43 6 51 -32 4 -17 13 -30 20 -30 7 0 30 -34 51&#10;-75 21 -41 48 -85 62 -97 l25 -23 -13 24 c-8 15 3 8 30 -20 61 -64 66 -77 35&#10;-85 -46 -11 -112 6 -162 42 -27 19 -55 37 -64 40 -8 3 -21 21 -28 40 -11 29&#10;-16 34 -34 28 -12 -4 -27 -14 -34 -23 -10 -14 -13 -12 -22 12 -6 16 -11 33&#10;-11 38 0 5 -7 9 -15 9 -8 0 -15 -8 -15 -17 0 -25 -18 -3 -22 27 -1 14 -7 25&#10;-13 26 -5 0 -22 5 -36 11 -14 6 -45 16 -70 23 -24 7 -52 16 -62 21 -11 6 -25&#10;5 -39 -2 -41 -22 -282 12 -365 51 -46 21 -63 26 -59 15 3 -10 -1 -15 -12 -15&#10;-9 -1 -42 -14 -72 -30 -59 -32 -114 -38 -169 -19 -36 13 -41 44 -15 84 10 15&#10;12 25 6 25 -12 0 -33 -17 -108 -88 -28 -26 -52 -41 -61 -38 -21 8 -60 -14 -43&#10;-24 15 -10 6 -40 -12 -40 -13 1 -58 63 -58 81 0 13 18 11 23 -3 2 -7 8 -9 13&#10;-5 4 4 3 17 -4 27 -15 25 -16 38 0 22 20 -20 31 -14 26 13 -6 31 7 42 20 19 8&#10;-15 11 -12 17 15 4 18 4 35 1 38 -10 11 -58 -8 -63 -25 -12 -45 -93 -66 -93&#10;-23 0 9 -7 26 -15 37 -15 18 -15 17 -13 -18 4 -57 -18 -70 -32 -20 -12 48 -36&#10;71 -28 27 4 -19 0 -33 -13 -46 -11 -11 -19 -32 -19 -49 0 -19 -5 -30 -14 -30&#10;-11 0 -16 14 -18 48 -2 27 -7 45 -13 42 -10 -5 -15 -42 -16 -120 l-1 -35 -18&#10;35 c-10 19 -21 54 -25 78 -9 54 -30 57 -22 2 4 -29 1 -40 -8 -40 -7 0 -15 7&#10;-19 15 -3 8 -10 15 -16 15 -18 0 -11 -29 16 -70 15 -22 25 -43 22 -46 -9 -8&#10;-46 50 -80 123 -17 38 -33 62 -35 56 -8 -22 70 -163 107 -196 19 -17 45 -44&#10;57 -60 l22 -30 -34 -40 c-45 -52 -46 -73 -1 -24 18 20 43 37 55 37 25 0 27&#10;-17 4 -42 -15 -17 -15 -18 0 -18 10 0 17 5 17 10 0 13 27 13 35 0 3 -5 -2 -21&#10;-11 -35 -20 -31 -12 -32 26 -3 24 17 33 19 42 10 10 -10 10 -17 -1 -34 -12&#10;-19 -11 -20 6 -16 10 3 25 9 34 12 19 8 88 -43 89 -66 0 -13 11 -18 47 -20 36&#10;-2 49 -7 51 -20 2 -13 -3 -18 -17 -18 -12 0 -21 -4 -21 -10 0 -5 14 -10 30&#10;-10 17 0 30 -4 30 -9 0 -6 19 -9 43 -8 52 2 59 -23 10 -38 -18 -5 -33 -13 -33&#10;-17 0 -15 46 -8 89 13 50 24 76 22 76 -6 1 -20 6 -21 58 -9 26 6 28 4 25 -17&#10;-3 -21 1 -24 27 -24 27 0 30 -3 28 -27 -1 -23 2 -28 21 -28 29 0 64 -46 47&#10;-63 -7 -7 -3 -17 15 -34 25 -23 25 -43 -2 -43 -18 0 -18 -11 1 -36 19 -25 19&#10;-35 0 -28 -17 7 -21 -21 -5 -31 6 -3 10 -11 10 -17 0 -7 -5 -6 -14 1 -17 15&#10;-29 0 -20 -24 6 -15 4 -16 -14 -6 -15 8 -22 8 -22 1 0 -5 -6 -10 -14 -10 -8 0&#10;-16 -5 -18 -11 -4 -11 -113 25 -123 42 -4 5 5 5 20 -1 37 -14 118 -12 139 3&#10;14 10 16 25 14 76 -2 43 -7 66 -17 69 -10 3 -12 -3 -6 -26 8 -39 -11 -111 -32&#10;-119 -9 -4 -29 1 -45 10 -17 9 -35 17 -41 17 -7 1 -21 15 -32 32 -11 17 -27&#10;34 -35 38 -8 4 -26 12 -39 19 -23 12 -22 11 9 -43 33 -59 29 -73 -10 -31 -13&#10;14 -30 23 -36 21 -7 -3 -33 17 -59 45 -25 27 -50 49 -54 49 -5 0 -25 18 -45&#10;40 -20 22 -36 35 -36 29 0 -6 -18 3 -39 20 -21 17 -45 31 -54 31 -8 0 -26 9&#10;-41 21 -15 11 -32 19 -39 16 -7 -3 -23 6 -35 18 -15 15 -44 28 -80 35 -31 6&#10;-77 18 -102 27 -25 8 -74 18 -110 22 -66 6 -130 35 -130 58 0 7 -13 27 -30 45&#10;-29 33 -29 33 -29 8 0 -14 4 -45 10 -69 5 -24 8 -46 5 -48 -3 -3 -26 15 -53&#10;40 -26 24 -64 52 -83 62 -19 10 -41 26 -48 36 -7 11 -17 19 -23 19 -15 0 -10&#10;-27 6 -34 8 -3 15 -11 15 -17 0 -7 -11 -2 -25 11 -23 21 -25 22 -25 5 0 -11&#10;14 -34 32 -52 17 -18 29 -36 25 -39 -7 -7 -177 163 -230 230 -46 58 -51 41 -7&#10;-20 36 -47 70 -111 70 -129 0 -3 -6 -5 -14 -5 -20 0 -98 90 -135 155 -17 30&#10;-36 55 -41 55 -15 0 -12 -11 10 -45 11 -16 17 -37 14 -47 -2 -9 0 -19 6 -23 5&#10;-3 10 -11 10 -17 0 -17 -28 11 -36 35 -15 54 -57 153 -70 167 -12 12 -14 10&#10;-14 -20 -1 -33 -2 -34 -15 -16 -8 10 -26 54 -41 98 -14 44 -37 90 -50 103 -13&#10;13 -24 29 -24 35 0 5 -5 10 -11 10 -5 0 -7 -4 -4 -10 3 -5 2 -10 -3 -10 -6 0&#10;-17 18 -26 40 -20 50 -29 51 -20 3 6 -34 6 -37 -9 -24 -9 7 -24 39 -34 70 -24&#10;80 -47 102 -27 27 8 -32 12 -61 9 -64 -11 -11 -39 14 -71 62 -40 59 -48 67&#10;-40 36 l7 -25 -20 23 c-29 33 -35 27 -11 -13 17 -27 18 -35 7 -35 -16 0 -47&#10;31 -47 47 0 6 -20 23 -44 37 -24 14 -67 51 -95 83 -28 31 -53 54 -56 51 -9 -9&#10;60 -91 119 -141 31 -27 56 -53 56 -57 0 -16 -33 2 -79 42 -24 21 -47 36 -50&#10;32 -3 -3 3 -12 13 -20 11 -7 17 -16 14 -19 -3 -4 -48 34 -99 82 -51 48 -90 80&#10;-86 71 5 -14 1 -18 -20 -18 -19 0 -41 15 -75 51 -59 63 -76 57 -22 -7 60 -71&#10;86 -112 81 -126 -3 -8 -20 4 -47 35 -24 26 -47 47 -52 47 -12 0 16 -52 40 -73&#10;11 -11 36 -44 54 -74 30 -50 41 -59 123 -100 50 -24 79 -42 65 -39 -14 3 -35&#10;6 -47 6 -12 0 -35 11 -51 25 -17 14 -37 25 -45 25 -24 0 -81 52 -67 60 8 5 -1&#10;15 -24 30 -20 12 -43 37 -51 56 -19 46 -35 44 -24 -3 12 -56 -6 -62 -32 -12&#10;-18 34 -24 40 -27 25 -2 -10 6 -36 18 -57 26 -47 19 -63 -23 -55 l-31 6 37&#10;-37 c20 -20 37 -42 37 -49 0 -8 11 -21 25 -30 14 -9 25 -20 25 -24 0 -18 -80&#10;24 -129 67 -28 24 -51 39 -51 33 0 -6 16 -26 35 -43 19 -17 35 -35 35 -40 0&#10;-14 -70 2 -108 24 -40 23 -42 23 -42 4 0 -8 17 -19 42 -26 47 -12 133 -54 142&#10;-68 3 -5 -13 -2 -36 6 -33 11 -48 12 -67 3 -24 -11 -24 -11 30 -48 70 -47 129&#10;-95 129 -104 0 -16 -32 -7 -88 24 -31 17 -75 41 -98 52 -22 12 -49 29 -58 39&#10;-21 21 -46 22 -46 2 0 -8 4 -15 9 -15 4 0 42 -31 82 -70 63 -59 70 -70 51 -70&#10;-14 0 -36 13 -51 29 -15 16 -49 40 -77 54 -28 14 -65 41 -82 59 -18 18 -49 51&#10;-70 73 -55 57 -92 89 -92 78 0 -5 23 -32 50 -60 37 -38 50 -59 50 -80 0 -16 5&#10;-34 12 -41 8 -8 8 -12 1 -12 -18 0 -133 89 -133 103 0 8 -6 14 -14 14 -8 0&#10;-14 -5 -13 -11 1 -6 -9 -10 -23 -8 -32 3 -28 0 121 -83 63 -36 131 -81 149&#10;-100 l34 -35 -30 0 c-16 0 -36 -4 -44 -10 -12 -7 -11 -10 5 -15 54 -18 96 -40&#10;116 -61 31 -33 8 -31 -65 6 -32 17 -66 30 -75 30 -28 0 -114 50 -161 94 -25&#10;23 -61 55 -80 71 l-35 30 25 -29 c44 -51 111 -110 168 -148 45 -30 52 -38 39&#10;-44 -16 -6 -16 -9 -4 -23 8 -9 20 -26 26 -38 10 -20 9 -23 -9 -23 -13 0 -20 7&#10;-20 19 0 12 -9 21 -24 25 -13 3 -43 22 -66 41 -26 21 -53 35 -69 35 -20 0 -43&#10;15 -80 50 -29 28 -54 50 -57 50 -3 0 2 -12 11 -27 17 -29 64 -67 146 -118 39&#10;-24 55 -43 82 -97 19 -38 30 -68 25 -68 -5 0 -23 8 -41 17 -18 10 -47 18 -65&#10;19 -39 1 -116 69 -138 122 -8 17 -19 32 -24 32 -12 0 -2 -26 27 -69 13 -19 23&#10;-39 23 -45 0 -6 16 -21 36 -34 19 -12 39 -33 44 -46 5 -13 23 -32 39 -42 66&#10;-39 25 -37 -51 2 -28 15 -30 15 -25 0 9 -24 -4 -20 -69 19 -55 33 -102 47 -89&#10;25 4 -6 28 -21 55 -35 55 -28 183 -115 177 -121 -2 -2 -38 14 -81 36 -85 44&#10;-128 54 -87 19 13 -11 21 -22 18 -25 -12 -12 -49 9 -91 52 -32 32 -52 44 -72&#10;44 l-29 -1 26 -22 c15 -12 43 -35 63 -50 20 -15 36 -32 36 -38 0 -6 -4 -7 -10&#10;-4 -5 3 -10 2 -10 -3 0 -6 11 -13 25 -16 38 -10 30 -26 -12 -27 -21 -1 -42 0&#10;-48 1 -5 2 -21 5 -35 7 -14 3 -36 17 -50 33 -14 15 -35 32 -47 39 -32 17 -31&#10;-8 3 -48 14 -17 23 -35 19 -41 -4 -6 5 -10 22 -10 33 0 73 -25 73 -45 0 -7 7&#10;-21 16 -30 25 -25 7 -31 -24 -8 -15 11 -42 27 -59 37 -18 9 -60 41 -94 71 -69&#10;62 -101 74 -74 27 9 -15 31 -37 48 -48 22 -14 36 -34 43 -62 6 -23 8 -42 4&#10;-42 -29 0 -106 34 -135 59 -34 30 -75 41 -75 21 0 -5 24 -27 53 -49 62 -48&#10;134 -111 127 -111 -3 0 -31 9 -63 20 -63 22 -87 25 -87 10 0 -21 -28 -8 -79&#10;35 -29 25 -55 45 -57 45 -11 0 -2 -21 21 -48 14 -17 23 -36 20 -44 -3 -7 8&#10;-20 25 -30 30 -17 40 -38 19 -38 -20 0 -104 54 -146 93 -24 23 -45 38 -49 35&#10;-9 -9 14 -46 36 -58 11 -6 20 -20 20 -32 0 -12 17 -39 37 -60 32 -33 34 -38&#10;17 -38 -11 0 -45 18 -75 40 -109 79 -134 84 -80 17 19 -25 27 -44 24 -60 -4&#10;-19 4 -31 37 -57 22 -18 39 -35 36 -37 -9 -9 -75 38 -81 57 -4 11 -10 20 -15&#10;20 -4 0 -38 29 -75 65 -37 36 -69 65 -71 65 -2 0 -4 -9 -4 -20 0 -10 16 -32&#10;35 -47 38 -30 44 -43 20 -43 -22 0 -19 -7 17 -41 32 -29 32 -30 8 -25 -14 3&#10;-37 6 -52 6 -15 0 -43 15 -68 35 -23 19 -44 35 -46 35 -11 0 -1 -22 21 -46 14&#10;-15 25 -30 25 -33 0 -4 22 -14 48 -24 57 -19 102 -52 102 -73 0 -18 -29 -18&#10;-36 1 -3 8 -30 21 -59 30 -33 9 -85 38 -134 75 -68 50 -81 57 -81 40 0 -13 12&#10;-26 35 -37 40 -19 58 -49 23 -37 -45 14 2 -25 66 -56 67 -32 104 -64 87 -75&#10;-6 -3 -32 3 -57 14 -26 12 -56 21 -68 21 -11 1 -32 7 -46 15 -27 15 -70 20&#10;-70 8 0 -5 14 -17 31 -28 66 -43 56 -76 -17 -56 -42 12 -54 8 -54 -19 0 -11&#10;10 -20 27 -25 26 -6 26 -8 10 -19 -23 -18 -22 -47 4 -53 18 -5 17 -7 -11 -25&#10;-27 -16 -31 -23 -26 -44 4 -14 2 -32 -4 -40 -7 -7 -8 -19 -4 -26 5 -7 9 -17&#10;10 -23 0 -5 2 -16 2 -22 3 -20 41 -15 69 7 30 24 45 26 37 5 -10 -24 35 -19&#10;86 10 141 80 316 154 378 160 28 2 81 16 117 30 37 14 79 25 94 25 14 1 44 8&#10;66 16 22 9 75 26 117 38 43 13 92 36 110 50 33 28 156 105 238 150 25 14 63&#10;44 85 67 22 23 72 67 110 97 39 31 113 100 165 153 91 94 231 209 255 209 6 0&#10;42 20 80 45 66 43 173 85 219 85 12 0 39 9 61 20 22 11 51 20 65 20 23 0 244&#10;105 315 149 l30 19 88 -116 c118 -159 129 -171 121 -148 -5 14 11 6 61 -28 37&#10;-25 75 -46 85 -46 10 0 24 -7 31 -17 25 -30 79 -44 163 -44 44 1 95 1 112 1&#10;17 0 44 4 60 9 69 19 189 2 341 -49 90 -30 155 -58 172 -73 14 -14 40 -32 56&#10;-41 79 -41 95 -71 94 -173 -1 -103 15 -141 75 -182 26 -17 53 -31 61 -31 7 0&#10;39 29 70 65 l57 64 51 -26 c38 -20 68 -27 111 -27 57 -1 59 0 101 46 42 46 65&#10;105 65 164 0 51 -23 101 -76 168 -53 67 -54 68 -54 136 0 40 -8 94 -20 132&#10;-11 34 -20 66 -20 71 0 14 22 7 54 -18 49 -37 115 -58 135 -43 13 10 14 10 4&#10;-2 -10 -11 -7 -17 17 -32 17 -10 30 -26 30 -36 0 -28 56 -106 104 -146 32 -26&#10;43 -41 39 -55 -10 -38 25 -126 69 -174 54 -57 113 -71 175 -41 33 16 39 25 43&#10;59 l5 39 46 -47 c31 -31 55 -47 72 -47 13 0 44 -3 69 -6 38 -5 48 -3 76 21 24&#10;20 32 35 32 60 0 42 -15 84 -42 112 -11 12 -33 60 -49 106 -15 47 -50 125 -77&#10;174 -40 71 -92 190 -92 208 0 11 119 -71 164 -113 99 -93 167 -108 270 -58&#10;108 53 113 83 30 171 -31 33 -84 98 -119 146 -79 105 -216 233 -295 274 -48&#10;25 -185 59 -379 96 -91 17 -176 36 -190 44 -15 7 -40 16 -58 19 -34 8 -93 66&#10;-93 91 0 8 -4 15 -8 15 -5 0 -29 19 -54 43 -25 23 -75 61 -111 84 -58 38 -74&#10;43 -144 49 -50 4 -131 0 -224 -11 -121 -13 -167 -14 -263 -6 -104 10 -123 15&#10;-183 48 -38 20 -76 43 -85 51 -9 8 -21 11 -27 8 -6 -4 -41 2 -78 14 -76 23&#10;-229 30 -298 12 -22 -5 -83 -13 -135 -16 -83 -5 -101 -4 -135 14 -22 11 -44&#10;20 -51 20 -6 0 -33 9 -59 21 -26 12 -82 27 -124 35 -70 12 -253 17 -311 7z&#10;m1011 -130 c13 -15 11 -16 -16 -9 -41 10 -56 26 -23 26 14 0 32 -7 39 -17z&#10;m-1414 -93 c-1 -33 -5 -60 -10 -60 -5 0 -7 6 -4 14 3 8 -1 17 -9 20 -25 10&#10;-15 86 12 86 10 0 13 -16 11 -60z m2338 -37 c43 -47 44 -48 20 -51 -45 -6&#10;-109 57 -90 88 11 18 25 11 70 -37z m49 31 c19 -7 22 -44 3 -44 -7 0 -18 5&#10;-25 12 -26 26 -12 45 22 32z m-2497 -30 c-9 -9 -28 6 -21 18 4 6 10 6 17 -1 6&#10;-6 8 -13 4 -17z m2345 14 c25 -20 52 -68 38 -68 -26 0 -100 53 -100 72 0 13&#10;44 9 62 -4z m-254 -25 c18 -9 30 -18 28 -21 -7 -7 -94 27 -102 40 -8 12 24 4&#10;74 -19z m161 13 c31 -17 57 -44 48 -52 -9 -9 -66 25 -77 46 -13 24 -8 25 29 6z&#10;m-63 -17 c31 -19 45 -39 27 -39 -5 0 -28 14 -53 30 -52 35 -28 43 26 9z&#10;m-2221 1 c4 -6 -6 -10 -22 -10 -22 0 -25 2 -13 10 19 12 27 12 35 0z m2705&#10;-57 c0 -13 -3 -13 -15 -3 -8 7 -15 19 -15 27 0 13 3 13 15 3 8 -7 15 -19 15&#10;-27z m-2690 17 c0 -5 -2 -10 -4 -10 -3 0 -8 5 -11 10 -3 6 -1 10 4 10 6 0 11&#10;-4 11 -10z m336 -255 c12 -8 36 -32 53 -54 l33 -41 -26 0 c-28 0 -126 85 -126&#10;109 0 14 32 7 66 -14z m3083 -115 c12 -18 13 -22 2 -19 -8 3 -21 16 -30 29&#10;-12 18 -13 22 -2 19 8 -3 21 -16 30 -29z m-3109 5 c7 -8 8 -15 2 -15 -5 0 -15&#10;7 -22 15 -7 8 -8 15 -2 15 5 0 15 -7 22 -15z m200 -65 c11 0 20 -4 20 -10 0&#10;-24 -150 31 -158 58 -3 8 20 1 57 -17 33 -17 70 -31 81 -31z m-319 -13 c6 -12&#10;34 -34 62 -47 48 -23 50 -25 25 -28 -38 -5 -91 23 -111 57 -21 36 -21 41 -2&#10;41 9 0 20 -10 26 -23z m494 -47 c3 -5 2 -10 -4 -10 -5 0 -13 5 -16 10 -3 6 -2&#10;10 4 10 5 0 13 -4 16 -10z m-134 -30 c8 0 24 -7 35 -15 18 -14 17 -15 -11 -9&#10;-16 4 -43 14 -60 21 -25 12 -26 13 -5 9 14 -3 32 -6 41 -6z m1649 -84 c0 -35&#10;-15 -64 -26 -53 -4 4 -9 35 -11 70 l-4 62 20 -24 c12 -13 21 -37 21 -55z m50&#10;29 c0 -14 -4 -25 -10 -25 -5 0 -10 11 -10 25 0 14 5 25 10 25 6 0 10 -11 10&#10;-25z m-1853 -56 c34 -11 67 -27 74 -35 18 -22 -3 -17 -82 21 -83 40 -81 44 8&#10;14z m-569 -45 c24 -16 29 -34 10 -34 -14 0 -48 30 -48 42 0 12 13 10 38 -8z&#10;m480 -10 c17 -7 32 -16 32 -19 0 -10 -54 8 -85 27 -27 18 -28 19 -5 13 14 -4&#10;40 -13 58 -21z m1976 10 c20 -19 11 -40 -10 -23 -13 10 -20 39 -10 39 3 0 12&#10;-7 20 -16z m-14 -44 c0 -5 -2 -10 -4 -10 -3 0 -8 5 -11 10 -3 6 -1 10 4 10 6&#10;0 11 -4 11 -10z m-2395 -20 c3 -5 2 -10 -4 -10 -5 0 -13 5 -16 10 -3 6 -2 10&#10;4 10 5 0 13 -4 16 -10z m2563 -119 c12 -32 22 -66 22 -75 0 -9 5 -16 10 -16 6&#10;0 10 -4 10 -10 0 -20 -20 -9 -78 45 -33 30 -64 55 -70 55 -12 0 -37 29 -30 36&#10;5 4 77 20 103 23 6 0 20 -26 33 -58z m-1227 -73 c8 -15 8 -18 0 -14 -6 4 -16&#10;16 -22 28 -8 15 -8 18 0 14 6 -4 16 -16 22 -28z m2059 -34 c0 -20 29 -44 53&#10;-44 18 1 15 4 -11 15 -18 8 -31 19 -28 24 8 13 88 -10 85 -24 -2 -5 9 -12 24&#10;-15 33 -6 23 -27 -15 -32 -42 -6 -45 -18 -5 -18 39 0 57 -14 31 -24 -24 -9&#10;-86 10 -113 35 -26 25 -62 99 -54 112 6 11 33 -12 33 -29z m-632 -14 c13 0 22&#10;-6 22 -15 0 -19 -60 -21 -78 -3 -19 19 -14 31 11 24 12 -3 32 -6 45 -6z&#10;m-2867 -30 c13 -10 21 -19 18 -20 -11 0 -79 30 -79 35 0 13 40 3 61 -15z&#10;m1657 -33 c12 -11 22 -24 22 -29 0 -12 -42 11 -57 31 -29 38 -8 36 35 -2z&#10;m1249 2 c25 -10 26 -12 9 -18 -26 -10 -62 -2 -77 15 -9 11 -7 14 14 14 14 0&#10;38 -5 54 -11z m-2998 -45 c15 -14 -49 0 -69 16 l-25 19 45 -15 c25 -9 47 -17&#10;49 -20z m3471 26 c0 -5 -7 -10 -16 -10 -8 0 -12 5 -9 10 3 6 10 10 16 10 5 0&#10;9 -4 9 -10z m-1618 -22 c-9 -9 -15 -9 -24 0 -9 9 -7 12 12 12 19 0 21 -3 12&#10;-12z m2028 -2 c0 -8 -4 -18 -10 -21 -5 -3 -10 3 -10 14 0 12 5 21 10 21 6 0&#10;10 -6 10 -14z m-341 -20 c9 -11 9 -15 -1 -19 -19 -6 -38 3 -38 19 0 18 24 18&#10;39 0z m195 -76 c18 -42 48 -65 72 -56 18 7 64 -10 64 -24 0 -5 -7 -10 -16 -10&#10;-8 0 -12 -4 -9 -10 3 -5 17 -10 30 -10 27 0 43 -19 25 -30 -8 -5 -7 -9 4 -13&#10;9 -4 16 -13 16 -22 0 -11 -10 -15 -36 -15 -30 0 -43 8 -75 43 -101 108 -108&#10;119 -109 160 0 39 13 34 34 -13z m-134 21 c0 -13 -34 -23 -54 -15 -9 3 -13 10&#10;-10 15 7 12 64 12 64 0z m255 -10 c8 -14 -33 -34 -53 -26 -15 6 -15 8 2 21 23&#10;16 42 18 51 5z m-4033 -74 c11 -21 10 -21 -12 -6 -28 19 -39 42 -16 33 9 -4&#10;22 -16 28 -27z m3793 -12 c0 -12 -40 -19 -61 -11 -9 3 -12 11 -9 16 8 14 70 9&#10;70 -5z m53 -42 c2 -9 -8 -13 -33 -13 -21 0 -34 -4 -30 -10 3 -5 24 -10 45 -10&#10;43 0 64 -18 31 -27 -12 -3 -21 -9 -21 -14 0 -5 -18 0 -40 11 -37 19 -60 45&#10;-60 70 0 16 102 9 108 -7z m72 -59 c0 -13 -4 -24 -10 -24 -5 0 -10 14 -10 31&#10;0 17 4 28 10 24 6 -3 10 -17 10 -31z m-966 -97 c20 -18 36 -37 36 -41 0 -9&#10;-32 -4 -63 9 -31 13 -8 -22 29 -44 19 -11 34 -25 34 -31 0 -20 -40 -10 -72 19&#10;-25 22 -32 36 -32 65 0 30 13 54 30 56 1 0 18 -15 38 -33z m-3519 -57 c10 -11&#10;16 -23 12 -26 -7 -7 -57 25 -57 37 0 16 26 9 45 -11z m85 -15 c7 -8 8 -15 2&#10;-15 -5 0 -15 7 -22 15 -7 8 -8 15 -2 15 5 0 15 -7 22 -15z m280 -235 c-20 -13&#10;-33 -13 -25 0 3 6 14 10 23 10 15 0 15 -2 2 -10z"/>
<path d="M9481 4368 c-36 -5 -98 -22 -139 -38 -52 -21 -91 -30 -132 -30 -57 0&#10;-225 -34 -245 -50 -5 -4 -27 -13 -47 -19 -20 -7 -67 -32 -103 -56 -36 -23 -80&#10;-48 -98 -55 -18 -7 -46 -19 -63 -28 -22 -11 -44 -13 -75 -8 -92 15 -171 7&#10;-274 -26 -55 -18 -104 -39 -108 -46 -6 -10 -12 -10 -30 0 -12 7 -60 16 -107&#10;19 -47 4 -114 10 -150 14 -49 6 -94 2 -183 -15 -64 -12 -132 -20 -150 -17 -24&#10;3 -49 -5 -102 -34 -41 -22 -102 -45 -144 -54 -40 -8 -78 -18 -85 -22 -6 -4&#10;-33 -11 -61 -14 -71 -10 -177 -48 -168 -61 3 -7 1 -8 -6 -4 -7 5 -41 -7 -79&#10;-27 -37 -19 -86 -41 -109 -48 -49 -14 -56 -28 -55 -108 0 -61 9 -72 92 -115&#10;58 -30 133 -46 219 -46 57 0 78 5 139 35 81 40 145 55 241 55 48 0 82 7 126&#10;26 87 37 97 38 164 15 100 -35 184 -44 309 -34 84 6 118 5 136 -4 52 -27 42&#10;-68 -35 -135 -57 -50 -91 -82 -115 -109 -8 -9 -46 -29 -84 -44 -128 -52 -163&#10;-107 -140 -221 14 -65 33 -90 91 -118 54 -26 54 -33 5 -174 -39 -111 -43 -141&#10;-24 -175 7 -12 11 -50 9 -84 -2 -60 19 -204 40 -270 10 -31 47 -53 90 -53 32&#10;0 113 31 136 53 21 19 24 19 41 4 10 -10 26 -17 35 -17 33 0 107 42 141 80 44&#10;49 58 102 54 204 -2 65 0 80 11 78 8 -2 11 3 8 12 -4 9 -1 18 4 22 22 13 49&#10;90 49 141 0 45 4 55 26 70 14 10 53 42 87 71 37 33 63 49 66 41 2 -6 -3 -44&#10;-10 -83 -25 -129 -7 -349 35 -436 60 -121 69 -133 118 -153 58 -24 81 -19 136&#10;30 35 32 44 47 53 95 10 51 9 63 -9 107 -20 50 -20 50 -1 113 10 35 19 86 19&#10;113 0 28 4 55 8 61 4 6 48 10 107 10 145 1 245 13 282 36 27 16 43 18 86 13&#10;70 -9 162 8 277 52 64 25 105 47 125 69 17 17 64 52 105 77 87 53 171 128 194&#10;174 23 46 51 61 136 74 101 15 470 32 653 30 82 -1 154 2 160 8 7 5 91 14 187&#10;20 201 12 271 21 265 31 -5 9 96 25 250 41 61 6 142 17 180 24 44 8 90 10 125&#10;5 50 -7 65 -4 167 36 62 24 124 44 139 44 19 0 25 4 22 18 -3 13 -15 17 -58&#10;18 -92 2 -90 1 -90 35 0 49 -16 66 -92 95 -89 33 -164 70 -173 84 -4 6 0 17&#10;10 23 14 11 9 20 -50 76 -48 46 -69 61 -75 52 -6 -10 -13 -9 -34 4 -14 10 -26&#10;15 -26 12 0 -3 15 -41 34 -84 57 -132 57 -136 -7 -110 -39 17 -151 142 -144&#10;161 8 21 -125 72 -149 58 -17 -10 -14 -13 24 -28 42 -17 51 -31 31 -51 -7 -7&#10;-3 -12 14 -17 24 -6 122 -104 113 -113 -13 -13 -141 84 -169 128 -17 26 -37&#10;39 -37 24 0 -20 35 -68 70 -95 39 -31 69 -70 53 -70 -4 0 -40 35 -80 77 -45&#10;48 -73 71 -73 60 0 -22 -11 -21 -49 0 -50 29 -56 5 -12 -52 21 -28 51 -72 66&#10;-99 39 -66 11 -56 -36 14 -19 29 -45 57 -57 61 -12 5 -28 24 -36 44 -8 19 -22&#10;35 -30 35 -18 0 -21 -16 -6 -25 6 -3 10 -11 10 -17 0 -7 -9 -2 -21 11 -12 12&#10;-24 20 -27 17 -3 -3 3 -15 13 -26 23 -26 6 -26 -45 0 -57 29 -66 25 -31 -15&#10;51 -58 39 -88 -15 -36 -37 36 -86 61 -119 61 -23 0 -25 -3 -20 -22 4 -13 11&#10;-27 16 -33 5 -5 9 -18 9 -29 0 -17 -8 -12 -47 25 -43 41 -91 71 -81 52 32 -67&#10;47 -91 66 -106 23 -20 57 -76 49 -83 -10 -10 -69 51 -99 102 -22 35 -38 52&#10;-47 49 -8 -3 -22 2 -33 12 -13 12 -21 14 -30 5 -8 -8 -5 -18 11 -37 21 -27 20&#10;-45 -2 -45 -6 0 -26 14 -44 32 -35 34 -52 33 -33 -2 16 -30 9 -32 -33 -10 -32&#10;18 -37 18 -37 4 0 -9 11 -30 25 -46 14 -17 25 -32 23 -33 -2 -1 -17 -1 -34 2&#10;-20 3 -36 15 -48 34 -10 16 -26 29 -37 29 -23 0 -24 -11 -3 -51 28 -55 -7 -50&#10;-45 6 -27 40 -36 43 -51 15 -6 -11 -15 -18 -20 -15 -4 3 -10 0 -12 -7 -3 -9&#10;-15 -7 -46 5 -53 21 -52 21 -52 -3 0 -21 -15 -27 -25 -10 -3 6 -15 10 -26 10&#10;-10 0 -19 -4 -19 -10 0 -5 -9 -10 -20 -10 -11 0 -20 -4 -20 -9 0 -5 -8 -7 -17&#10;-5 -10 3 -27 -2 -38 -9 -17 -13 -18 -17 -5 -33 13 -16 11 -16 -9 1 -17 14 -25&#10;16 -28 8 -3 -7 -11 -13 -19 -13 -8 0 -14 -7 -14 -15 0 -9 -6 -12 -17 -8 -13 5&#10;-15 2 -11 -15 5 -19 3 -20 -12 -12 -26 14 -30 13 -30 -7 0 -9 -3 -13 -6 -10&#10;-4 4 -20 -3 -35 -14 -24 -17 -29 -18 -29 -5 0 9 9 25 20 36 11 11 20 24 20 29&#10;0 5 7 11 15 15 8 3 15 15 15 26 0 13 7 20 20 20 35 0 21 18 -26 34 -44 15 -64&#10;14 -64 -3 0 -4 10 -13 23 -19 20 -10 21 -11 2 -11 -11 0 -29 6 -39 14 -11 8&#10;-26 15 -33 15 -24 0 5 -39 33 -46 19 -5 22 -9 12 -15 -23 -15 -58 -11 -52 6 4&#10;8 1 15 -5 15 -16 0 -41 55 -41 90 0 20 5 30 15 30 8 0 15 7 15 15 0 9 -9 15&#10;-24 15 -13 0 -29 7 -36 15 -12 14 -40 21 -40 9 0 -3 5 -14 11 -25 10 -20 10&#10;-20 -15 -4 -16 11 -26 13 -26 6 0 -6 -6 -11 -14 -11 -7 0 -23 27 -35 60 -13&#10;36 -31 64 -44 71 -21 12 -21 12 -4 -12 39 -54 43 -89 10 -89 -16 0 -15 -22 3&#10;-65 7 -17 6 -18 -8 -7 -8 7 -23 10 -32 6 -19 -7 -19 -6 -6 -38 6 -17 6 -26 0&#10;-26 -6 0 -10 -14 -10 -31 0 -24 -4 -30 -15 -25 -8 3 -23 9 -32 13 -14 5 -13 0&#10;6 -30 l23 -37 -32 0 c-24 0 -31 -4 -27 -15 9 -23 -12 -29 -34 -9 -26 24 -34&#10;12 -13 -21 28 -42 5 -54 -56 -28 -54 23 -56 22 -39 -9 12 -23 1 -19 -35 11&#10;-18 15 -18 15 -11 -9 4 -14 14 -34 21 -45 18 -26 18 -32 -5 -45 -26 -13 -58 0&#10;-107 42 -25 22 -36 27 -31 15 6 -15 3 -17 -13 -12 -29 9 -25 1 18 -39 35 -34&#10;36 -36 13 -36 -15 0 -37 15 -63 45 -45 51 -65 59 -40 16 23 -40 8 -50 -26 -18&#10;-34 32 -47 35 -32 6 17 -31 1 -38 -20 -9 -18 24 -24 30 -66 70 -11 10 -27 30&#10;-38 45 -14 21 -21 24 -27 14 -6 -11 -14 -8 -33 11 l-26 23 0 -38 c0 -30 -3&#10;-36 -12 -27 -7 7 -16 12 -20 12 -14 0 -9 -37 7 -50 8 -7 15 -19 15 -26 0 -11&#10;-5 -11 -27 -1 -21 9 -27 9 -31 -1 -7 -22 -34 -43 -51 -40 -8 2 -24 -5 -33 -14&#10;-10 -10 -30 -18 -44 -18 -14 0 -23 -4 -19 -9 3 -6 -3 -15 -14 -20 -14 -8 -22&#10;-7 -31 4 -16 19 -31 19 -24 0 13 -32 -8 -36 -38 -8 l-30 28 7 -28 c6 -22 4&#10;-26 -9 -21 -12 4 -16 0 -16 -15 0 -25 -18 -27 -46 -6 -26 19 -35 19 -27 -2 5&#10;-13 -3 -9 -27 11 -35 29 -50 23 -31 -13 17 -30 13 -36 -10 -15 -19 17 -21 18&#10;-30 1 -7 -12 -17 -15 -35 -11 -25 6 -35 -10 -11 -19 9 -4 9 -8 -2 -15 -10 -7&#10;-10 -14 -2 -30 16 -29 14 -34 -9 -27 -11 4 -20 2 -20 -4 0 -6 -9 -11 -20 -11&#10;-17 0 -18 -4 -10 -25 11 -29 0 -39 -31 -30 -18 6 -20 4 -14 -14 8 -27 -6 -27&#10;-30 -1 -25 27 -37 25 -29 -5 7 -27 -4 -33 -24 -13 -17 17 -25 3 -12 -22 15&#10;-28 6 -36 -25 -22 -20 9 -25 9 -25 -1 0 -7 5 -18 11 -24 16 -16 -6 -26 -30&#10;-13 -28 15 -33 13 -19 -10 17 -26 4 -35 -24 -16 -31 22 -39 20 -32 -9 7 -28&#10;-7 -33 -26 -10 -18 21 -32 19 -25 -5 6 -18 2 -20 -40 -20 -25 0 -55 5 -66 10&#10;-14 8 -19 7 -19 -2 0 -17 -88 70 -106 105 -20 37 -9 113 20 142 12 12 55 32&#10;96 44 50 16 90 36 121 61 55 47 123 75 203 84 69 8 176 52 176 73 0 7 8 16 18&#10;20 9 3 56 23 103 44 47 22 95 39 106 39 29 0 276 260 261 276 -3 2 -17 -1 -32&#10;-7 -29 -14 -46 -5 -28 13 16 16 15 48 -2 48 -7 0 -19 -7 -26 -15 -7 -8 -19&#10;-15 -26 -15 -7 0 -28 -9 -45 -19 -29 -18 -35 -18 -61 -5 -25 13 -28 13 -28 -1&#10;0 -18 -4 -19 -30 -3 -25 16 -35 5 -20 -22 18 -33 4 -36 -25 -5 -31 34 -41 27&#10;-26 -16 21 -60 -7 -50 -41 14 -20 37 -23 39 -26 19 -2 -13 9 -43 27 -71 33&#10;-51 39 -81 17 -81 -9 0 -12 -8 -8 -25 6 -32 -8 -32 -37 -1 -13 14 -29 22 -37&#10;19 -16 -6 -56 18 -98 59 -17 15 -34 28 -39 28 -4 0 -6 -26 -2 -57 5 -44 3 -54&#10;-5 -40 -13 21 -32 23 -24 2 7 -17 -11 -21 -21 -5 -4 6 -15 4 -29 -5 -21 -14&#10;-25 -14 -36 0 -7 8 -21 15 -31 15 -32 0 -69 94 -69 176 -1 61 -2 67 -15 51 -7&#10;-11 -16 -36 -20 -57 -6 -37 -7 -38 -61 -45 -48 -6 -54 -9 -49 -26 8 -25 -4&#10;-24 -44 5 -62 46 -133 46 -90 0 36 -38 16 -37 -28 1 -47 40 -58 44 -43 14 17&#10;-31 9 -31 -39 2 -24 16 -47 26 -50 23 -3 -3 2 -11 12 -18 9 -7 17 -16 17 -20&#10;0 -14 -26 -4 -51 20 -39 37 -54 27 -29 -19 23 -42 19 -46 -17 -17 -14 11 -34&#10;20 -44 20 -9 0 -31 8 -48 17 -32 19 -51 13 -33 -10 16 -19 4 -28 -24 -21 -18&#10;5 -24 2 -24 -11 0 -13 -5 -16 -22 -10 -13 4 -38 9 -57 12 -31 5 -33 4 -26 -17&#10;6 -19 5 -21 -13 -11 -33 17 -44 14 -32 -9 13 -24 13 -24 -39 -5 -44 15 -50 12&#10;-24 -17 21 -23 -2 -25 -32 -2 -18 14 -20 13 -25 -5 -5 -19 -7 -20 -33 -6 -27&#10;14 -28 13 -22 -5 8 -24 5 -24 -42 -5 -38 16 -55 13 -35 -7 7 -7 12 -18 12 -25&#10;0 -20 -28 -15 -40 7 -16 30 -42 26 -34 -5 6 -24 -8 -35 -20 -16 -3 5 -15 11&#10;-26 14 -17 4 -19 1 -14 -19 9 -34 -13 -31 -54 9 l-34 32 4 -32 c4 -26 1 -33&#10;-12 -33 -37 0 -64 63 -42 97 4 6 37 25 74 41 36 17 69 35 72 41 4 6 19 11 34&#10;11 15 0 43 11 62 23 44 30 94 47 135 47 18 0 52 7 75 15 23 8 53 15 65 15 13&#10;0 54 17 92 37 44 24 89 40 128 45 137 17 388 29 505 23 176 -8 166 -9 260 8&#10;47 8 144 25 216 36 138 22 253 62 386 135 86 48 161 73 260 86 46 7 119 24&#10;163 38 69 23 98 26 214 27 94 1 136 5 139 13 9 27 -115 45 -217 30z m1789&#10;-583 c11 -18 20 -39 20 -46 -1 -19 -70 57 -70 76 0 23 27 7 50 -30z m800 -10&#10;c0 -8 -4 -15 -9 -15 -13 0 -22 16 -14 24 11 11 23 6 23 -9z m-1002 -87 c7 -7&#10;12 -15 12 -20 0 -12 -28 2 -34 18 -7 17 6 18 22 2z m572 -14 c0 -8 -4 -12 -10&#10;-9 -5 3 -10 10 -10 16 0 5 5 9 10 9 6 0 10 -7 10 -16z m-1530 -144 c0 -5 -4&#10;-10 -10 -10 -5 0 -10 5 -10 10 0 6 5 10 10 10 6 0 10 -4 10 -10z m1945 -50&#10;c-3 -5 -13 -10 -21 -10 -8 0 -12 5 -9 10 3 6 13 10 21 10 8 0 12 -4 9 -10z&#10;m-2335 -207 c0 -20 -3 -24 -11 -16 -7 7 -9 19 -6 27 10 24 17 19 17 -11z&#10;m-619 -89 c20 -19 26 -31 19 -39 -10 -13 12 -38 63 -70 26 -17 27 -17 27 1 0&#10;14 15 4 55 -38 30 -31 55 -65 55 -76 0 -18 -6 -19 -65 -15 l-66 4 7 -26 c7&#10;-29 -15 -35 -36 -10 -17 21 -28 19 -32 -7 -3 -21 -4 -21 -36 6 -18 16 -39 26&#10;-47 22 -17 -6 -146 43 -172 66 -10 9 -40 27 -68 41 -46 23 -83 62 -72 74 9 8&#10;70 42 117 65 48 24 133 38 189 32 20 -2 46 -15 62 -30z m322 -54 c22 -4 53&#10;-21 72 -40 26 -25 44 -33 82 -37 63 -6 103 -22 103 -40 0 -11 -7 -13 -26 -9&#10;-21 6 -25 4 -20 -8 3 -9 9 -23 12 -32 6 -13 0 -12 -34 5 -23 12 -51 21 -62 21&#10;-19 0 -21 -4 -15 -30 5 -25 4 -29 -9 -24 -9 3 -16 10 -16 15 0 5 -15 15 -32&#10;22 -47 20 -106 82 -118 125 -14 50 -13 55 8 47 9 -4 34 -11 55 -15z m222 -20&#10;c3 -5 2 -10 -4 -10 -5 0 -13 5 -16 10 -3 6 -2 10 4 10 5 0 13 -4 16 -10z&#10;m-1008 -60 c14 -29 9 -38 -12 -20 -12 10 -15 10 -15 -4 0 -9 -5 -16 -10 -16&#10;-6 0 -8 -11 -4 -26 6 -25 6 -26 -27 -19 -28 6 -32 5 -21 -6 17 -18 15 -32 -3&#10;-25 -9 3 -15 0 -15 -10 0 -8 -5 -12 -10 -9 -6 4 -24 8 -41 10 -27 4 -29 2 -24&#10;-16 6 -18 4 -20 -15 -14 -19 6 -21 4 -15 -14 5 -18 2 -21 -21 -21 -27 0 -27&#10;-1 -8 -15 18 -15 18 -15 0 -8 -17 5 -18 3 -12 -18 19 -63 19 -68 -3 -62 -21 5&#10;-29 -11 -11 -22 6 -3 10 -13 10 -22 0 -11 -6 -14 -26 -9 -23 6 -25 5 -19 -11&#10;5 -10 10 -33 13 -50 3 -25 0 -33 -11 -33 -13 0 -13 -7 3 -49 11 -26 16 -58 13&#10;-69 -3 -12 0 -35 5 -51 7 -19 7 -33 1 -36 -5 -4 -9 -15 -9 -26 0 -10 -7 -19&#10;-15 -19 -8 0 -15 -7 -15 -15 0 -8 -7 -15 -15 -15 -12 0 -13 -4 -3 -25 14 -31&#10;12 -33 -37 -40 -26 -4 -46 -2 -58 7 -17 13 -16 16 6 71 20 50 22 66 15 124 -4&#10;37 -12 71 -18 77 -17 17 -12 36 19 75 34 42 81 172 81 222 0 69 105 168 222&#10;211 40 14 78 25 83 24 6 -2 15 -13 22 -26z m-297 -110 c-6 -11 -18 -20 -28&#10;-20 -14 1 -13 4 7 20 29 25 34 25 21 0z m513 -26 c16 -13 33 -24 38 -24 6 0 7&#10;-5 4 -11 -4 -6 9 -37 29 -69 43 -69 46 -89 11 -66 -34 22 -52 21 -32 -2 25&#10;-28 20 -34 -13 -17 -27 14 -44 5 -20 -10 25 -16 7 -26 -35 -19 -50 7 -59 -1&#10;-19 -16 28 -11 24 -30 -7 -30 -20 0 -24 -16 -10 -38 4 -7 28 -19 51 -26 24 -7&#10;47 -19 50 -27 4 -8 14 -29 24 -48 13 -26 14 -36 5 -42 -9 -5 -10 -12 -3 -21 6&#10;-7 11 -28 12 -46 2 -31 1 -32 -19 -22 -18 10 -20 9 -15 -7 4 -12 0 -25 -11&#10;-35 -24 -20 -53 -30 -53 -18 0 6 7 10 15 10 8 0 15 4 15 9 0 11 -25 21 -55 21&#10;-24 0 -42 30 -31 49 3 5 -1 14 -9 21 -7 6 -12 17 -9 25 3 7 -3 19 -14 26 -11&#10;8 -22 32 -25 56 -6 38 -5 41 13 36 24 -6 26 9 5 27 -8 7 -15 16 -15 21 0 5 7&#10;9 15 9 17 0 20 25 5 35 -5 3 -15 15 -20 26 -10 18 -9 19 15 13 l26 -6 -22 36&#10;c-16 27 -20 46 -15 74 7 46 12 85 14 117 2 24 4 25 40 19 20 -4 50 -17 65 -30z&#10;m-814 -36 c15 -15 36 -23 75 -26 45 -4 56 -8 65 -29 16 -35 14 -45 -9 -31 -24&#10;16 -35 6 -21 -21 12 -21 0 -38 -19 -26 -16 10 -12 -11 5 -25 20 -17 20 -54 0&#10;-46 -16 6 -37 -33 -36 -66 1 -10 1 -27 2 -39 0 -11 12 -32 27 -45 23 -20 25&#10;-25 12 -33 -12 -8 -12 -13 -2 -23 16 -16 15 -38 -2 -38 -9 0 -12 -7 -9 -20 4&#10;-15 0 -20 -16 -20 -24 0 -25 -3 -8 -31 10 -17 9 -22 -5 -33 -10 -7 -18 -18&#10;-18 -24 0 -6 -9 -17 -20 -25 -11 -8 -17 -17 -13 -20 12 -13 -43 -7 -58 6 -26&#10;20 -59 165 -59 255 0 44 -4 92 -10 106 -7 20 -5 35 10 64 10 20 26 73 35 116&#10;9 44 18 83 21 88 9 14 33 9 53 -14z"/>
<path d="M9116 3079 c20 -23 54 -28 35 -5 -6 8 -21 16 -32 19 -20 5 -20 5 -3&#10;-14z"/>
<path d="M9085 3050 c3 -5 11 -10 16 -10 6 0 7 5 4 10 -3 6 -11 10 -16 10 -6&#10;0 -7 -4 -4 -10z"/>
<path d="M3412 4220 l1 -115 9 73 c5 45 5 89 0 115 -8 35 -10 21 -10 -73z"/>
<path d="M3778 4314 c-5 -4 -8 -19 -8 -33 1 -23 2 -24 11 -8 11 19 9 53 -3 41z"/>
<path d="M3471 4263 c1 -34 2 -35 9 -13 11 36 11 50 0 50 -5 0 -10 -17 -9 -37z"/>
<path d="M3848 4182 c4 -68 30 -152 57 -188 13 -17 13 -16 4 16 -31 103 -39&#10;139 -39 176 0 23 -6 46 -13 52 -10 9 -12 -2 -9 -56z"/>
<path d="M2540 4230 c0 -6 7 -10 15 -10 8 0 15 2 15 4 0 2 -7 6 -15 10 -8 3&#10;-15 1 -15 -4z"/>
<path d="M3771 4204 c0 -11 3 -14 6 -6 3 7 2 16 -1 19 -3 4 -6 -2 -5 -13z"/>
<path d="M3348 4103 c-4 -136 6 -187 15 -79 10 111 9 186 -2 186 -6 0 -11 -48&#10;-13 -107z"/>
<path d="M10795 4140 c-3 -5 -2 -10 3 -10 4 0 23 -33 41 -74 31 -71 47 -91&#10;101 -129 55 -39 53 -13 -5 59 -25 30 -45 58 -45 63 0 4 -16 25 -35 47 -19 21&#10;-35 42 -35 47 0 10 -18 9 -25 -3z"/>
<path d="M10747 4063 c58 -101 75 -124 106 -143 38 -23 47 -11 20 27 -10 14&#10;-29 42 -43 63 -42 62 -78 100 -95 100 -13 0 -11 -9 12 -47z"/>
<path d="M3965 4040 c6 -38 56 -183 61 -177 6 6 -38 161 -52 187 -15 25 -15&#10;25 -9 -10z"/>
<path d="M10426 4055 c-8 -23 27 -116 56 -149 14 -16 33 -37 42 -47 9 -11 21&#10;-19 27 -19 15 0 2 36 -31 90 -15 25 -31 56 -35 70 -4 14 -18 35 -30 48 -19 19&#10;-24 20 -29 7z"/>
<path d="M10518 4043 c12 -64 114 -203 149 -203 15 0 17 16 3 25 -5 3 -10 14&#10;-10 24 0 22 -118 181 -135 181 -8 0 -10 -9 -7 -27z"/>
<path d="M10680 4057 c0 -7 18 -34 40 -61 22 -26 40 -54 40 -61 0 -18 26 -37&#10;46 -33 13 2 9 13 -24 58 -79 107 -102 129 -102 97z"/>
<path d="M10620 4031 c0 -17 67 -106 92 -122 6 -4 15 -17 21 -29 13 -26 47&#10;-36 47 -14 0 8 -4 14 -10 14 -5 0 -16 12 -24 28 -8 15 -31 45 -51 67 -20 21&#10;-41 47 -46 57 -13 24 -29 23 -29 -1z"/>
<path d="M10350 4010 c0 -17 9 -40 20 -52 11 -12 20 -31 20 -41 0 -17 -8 -13&#10;-42 21 -23 23 -44 40 -46 37 -2 -2 6 -36 17 -76 23 -74 20 -101 -6 -61 -9 12&#10;-19 22 -24 22 -13 0 -11 -34 4 -49 10 -11 8 -11 -11 -2 -21 11 -24 9 -33 -18&#10;-7 -20 -18 -31 -30 -31 -19 0 -26 -15 -11 -24 14 -8 102 -16 102 -9 0 3 -8 15&#10;-17 26 -17 19 -17 20 4 8 30 -16 36 -14 30 9 -4 16 -1 19 24 16 27 -3 29 -1&#10;29 30 0 40 16 44 32 9 9 -19 19 -25 45 -25 l34 0 -26 43 c-14 24 -25 55 -25&#10;69 0 13 -11 35 -25 48 -14 13 -25 31 -25 40 0 17 -18 40 -32 40 -4 0 -8 -14&#10;-8 -30z"/>
<path d="M4070 3995 c-4 -36 1 -59 23 -97 26 -48 32 -43 11 8 -10 21 -20 55&#10;-24 74 -5 21 -9 27 -10 15z"/>
<path d="M4186 3909 c9 -46 45 -142 51 -135 4 4 -44 156 -53 165 -2 3 -1 -11&#10;2 -30z"/>
<path d="M1550 3922 c0 -4 14 -21 32 -38 l31 -29 -22 32 c-23 35 -41 50 -41&#10;35z"/>
<path d="M10107 3923 c-13 -12 -7 -23 13 -23 11 0 20 7 20 15 0 15 -21 21 -33&#10;8z"/>
<path d="M1410 3880 c12 -23 79 -70 99 -70 19 0 -34 57 -71 76 -36 19 -41 18&#10;-28 -6z"/>
<path d="M10067 3893 c-9 -9 12 -33 29 -33 19 0 18 26 -2 34 -19 7 -19 7 -27&#10;-1z"/>
<path d="M1280 3870 c0 -20 74 -80 118 -94 l47 -16 -27 23 c-49 40 -126 97&#10;-132 97 -3 0 -6 -4 -6 -10z"/>
<path d="M10030 3856 c0 -9 11 -18 25 -22 48 -12 45 16 -2 31 -17 5 -23 2 -23&#10;-9z"/>
<path d="M1150 3833 c0 -16 54 -61 94 -77 65 -27 73 -18 15 17 -30 18 -66 41&#10;-81 51 -16 10 -28 14 -28 9z"/>
<path d="M4300 3823 c0 -34 48 -117 91 -158 l42 -40 -31 40 c-16 22 -46 71&#10;-66 108 -20 38 -36 60 -36 50z"/>
<path d="M1674 3805 c4 -16 14 -37 23 -45 13 -13 12 -9 -1 24 -21 50 -31 60&#10;-22 21z"/>
<path d="M2316 3786 c8 -14 37 -38 62 -55 48 -30 122 -65 122 -57 0 3 -39 28&#10;-86 56 -47 29 -88 58 -91 66 -3 8 -9 14 -14 14 -5 0 -2 -11 7 -24z"/>
<path d="M2020 3783 c0 -5 12 -20 26 -34 24 -21 26 -22 16 -3 -13 25 -42 50&#10;-42 37z"/>
<path d="M1790 3761 c0 -16 45 -74 70 -90 23 -14 23 -13 -3 14 -16 16 -35 42&#10;-43 57 -14 28 -24 36 -24 19z"/>
<path d="M1930 3763 c0 -5 14 -22 31 -39 23 -21 29 -23 21 -9 -13 25 -52 62&#10;-52 48z"/>
<path d="M840 3731 c0 -11 57 -61 70 -61 5 0 17 -3 27 -6 11 -4 7 4 -12 20&#10;-38 33 -85 59 -85 47z"/>
<path d="M1850 3386 c0 -14 29 -63 44 -75 20 -17 20 -8 2 28 -15 27 -46 60&#10;-46 47z"/>
<path d="M8014 3239 c-17 -5 -38 -17 -45 -26 -13 -15 -12 -16 6 -8 11 4 51 10&#10;88 13 62 4 71 2 95 -21 15 -13 37 -30 50 -36 18 -10 22 -9 22 4 0 9 -8 19 -17&#10;22 -9 4 -25 15 -35 25 -37 37 -97 47 -164 27z"/>
<path d="M7900 3181 c0 -23 15 -43 41 -57 16 -8 46 -38 68 -68 l40 -54 45 23&#10;c77 39 116 66 116 81 0 22 -24 16 -51 -12 -22 -24 -98 -70 -103 -62 -2 2 -8&#10;17 -15 34 -22 56 -141 153 -141 115z"/>
<path d="M5097 3023 c-15 -18 -20 -40 -18 -78 1 -14 11 -3 31 34 17 30 30 56&#10;30 58 0 10 -29 0 -43 -14z"/>
<path d="M5190 3020 c0 -5 11 -10 24 -10 13 0 35 -9 49 -20 40 -31 56 -23 19&#10;10 -32 29 -92 42 -92 20z"/>
</g>
</svg>